<svg width="49" height="48" viewBox="0 0 49 48" fill="none" xmlns="http://www.w3.org/2000/svg">
<path d="M34.3055 22.0415H33.5V22H24.5V26H30.1515C29.327 28.3285 27.1115 30 24.5 30C21.1865 30 18.5 27.3135 18.5 24C18.5 20.6865 21.1865 18 24.5 18C26.0295 18 27.421 18.577 28.4805 19.5195L31.309 16.691C29.523 15.0265 27.134 14 24.5 14C18.9775 14 14.5 18.4775 14.5 24C14.5 29.5225 18.9775 34 24.5 34C30.0225 34 34.5 29.5225 34.5 24C34.5 23.3295 34.431 22.675 34.3055 22.0415Z" fill="#FFC107"/>
<path d="M15.653 19.3455L18.9385 21.755C19.8275 19.554 21.9805 18 24.5 18C26.0295 18 27.421 18.577 28.4805 19.5195L31.309 16.691C29.523 15.0265 27.134 14 24.5 14C20.659 14 17.328 16.1685 15.653 19.3455Z" fill="#FF3D00"/>
<path d="M24.5 34C27.083 34 29.43 33.0115 31.2045 31.404L28.1095 28.785C27.0718 29.5742 25.8037 30.001 24.5 30C21.899 30 19.6905 28.3415 18.8585 26.027L15.5975 28.5395C17.2525 31.778 20.6135 34 24.5 34Z" fill="#4CAF50"/>
<path d="M34.3055 22.0415H33.5V22H24.5V26H30.1515C29.7571 27.1082 29.0467 28.0766 28.108 28.7855L28.1095 28.7845L31.2045 31.4035C30.9855 31.6025 34.5 29 34.5 24C34.5 23.3295 34.431 22.675 34.3055 22.0415Z" fill="#1976D2"/>
<rect x="1" y="0.5" width="47" height="47" rx="15.5" stroke="#FFB8A4"/>
</svg>
