<svg width="49" height="48" viewBox="0 0 49 48" fill="none" xmlns="http://www.w3.org/2000/svg">
<path d="M29.8848 10.475C29.8273 10.4107 27.7542 10.5004 25.9502 12.4584C24.1462 14.4147 24.4237 16.6587 24.4644 16.7162C24.505 16.7738 27.0367 16.8635 28.6528 14.5873C30.269 12.3111 29.9424 10.541 29.8848 10.475ZM35.4932 30.3309C35.4119 30.1684 31.5585 28.2426 31.9173 24.5398C32.2761 20.8353 34.7519 19.8199 34.7908 19.7099C34.8298 19.5999 33.7805 18.373 32.6687 17.7519C31.8523 17.3141 30.9488 17.0632 30.0236 17.0175C29.8408 17.0124 29.2062 16.8567 27.9014 17.2138C27.0418 17.449 25.1041 18.2105 24.571 18.241C24.0362 18.2715 22.4454 17.3576 20.7345 17.1156C19.6396 16.9041 18.4787 17.3373 17.6477 17.6707C16.8185 18.0024 15.2413 18.9467 14.1379 21.4564C13.0345 23.9644 13.6116 27.938 14.0245 29.1733C14.4374 30.407 15.0822 32.4293 16.1788 33.905C17.1536 35.5703 18.4465 36.7261 18.9863 37.1187C19.5262 37.5114 21.0493 37.772 22.1053 37.2321C22.9548 36.7109 24.4881 36.4114 25.0939 36.4334C25.6981 36.4554 26.8894 36.694 28.1096 37.3455C29.0759 37.6789 29.9898 37.5401 30.9053 37.1678C31.8208 36.7938 33.1459 35.3757 34.6927 32.5004C35.2799 31.1635 35.5473 30.4409 35.4932 30.3309Z" fill="black"/>
<rect x="1" y="0.5" width="47" height="47" rx="15.5" stroke="#FFB8A4"/>
</svg>
